<svg width="1034.9450439453126px" height="210.08001098632812px" xmlns="http://www.w3.org/2000/svg" viewBox="-267.4725219726563 -30.04000549316406 1034.9450439453126 210.08001098632812" style="background: none;" preserveAspectRatio="xMidYMid"><defs><filter id="editing-extrude-glow"><feFlood flood-color="rgba(83.92156862745098%,57.25490196078431%,57.647058823529406%,0.069)" result="flood-1"></feFlood><feMorphology operator="erode" radius="1" in="SourceAlpha" result="erode"></feMorphology><feComposite operator="in" in="flood-1" in2="erode" result="comp1"></feComposite><feConvolveMatrix order="4,4" divisor="1" in="comp1" result="convolve" kernelMatrix="0 0 0 0 0 0 0 0 1 1 1 1 0 0 0 0"></feConvolveMatrix><feOffset dx="-4" dy="0" in="convolve" result="extrude"></feOffset><feComposite operator="in" in="flood-1" in2="extrude" result="comp-extrude"></feComposite><feFlood flood-color="#dce4eb" result="flood-2"></feFlood><feComposite operator="in" in="flood-2" in2="SourceAlpha" result="comp2"></feComposite><feMorphology operator="dilate" radius="1" in="comp2" result="dilate"></feMorphology><feOffset dx="-6" dy="0" in="dilate" result="offset"></feOffset><feGaussianBlur in="offset" stdDeviation="5.8" result="blur"></feGaussianBlur><feComponentTransfer in="blur" result="shadow"><feFuncA type="linear" slope="0.8" intercept="-0.2"></feFuncA></feComponentTransfer><feMerge><feMergeNode in="shadow"></feMergeNode><feMergeNode in="comp-extrude"></feMergeNode><feMergeNode in="SourceGraphic"></feMergeNode></feMerge></filter></defs><g filter="url(#editing-extrude-glow)"><g transform="translate(-123.31999826431274, 130.80000114440918)"><path d="M45.60-59.16L45.60-59.16L45.60-59.16Q49.56-63.60 56.40-63.60L56.40-63.60L56.40-63.60Q60.60-63.60 63.84-61.32L63.84-61.32L63.84-61.32Q67.08-59.04 67.08-54.78L67.08-54.78L67.08-54.78Q67.08-50.52 65.76-45.96L65.76-45.96L65.76-45.96Q64.44-41.40 62.40-36.72L62.40-36.72L62.40-36.72Q58.32-27.60 52.68-20.04L52.68-20.04L52.68-20.04Q44.76-9.12 37.14-3.36L37.14-3.36L37.14-3.36Q29.52 2.40 21.24 2.40L21.24 2.40L21.24 2.40Q14.52 2.40 10.44 0.84L10.44 0.84L10.44 0.84Q9.72-24.36 8.82-33.36L8.82-33.36L8.82-33.36Q7.92-42.36 7.20-47.28L7.20-47.28L7.20-47.28Q6-56.88 2.40-59.16L2.40-59.16L2.40-59.16Q5.16-61.56 7.86-62.58L7.86-62.58L7.86-62.58Q10.56-63.60 16.14-63.60L16.14-63.60L16.14-63.60Q21.72-63.60 25.68-59.22L25.68-59.22L25.68-59.22Q29.64-54.84 30.42-47.10L30.42-47.10L30.42-47.10Q31.20-39.36 31.20-30L31.20-30L31.20-30Q31.20-20.64 30.48-9.36L30.48-9.36L30.48-9.36Q34.20-12 38.16-20.04L38.16-20.04L38.16-20.04Q43.56-31.20 45.48-44.64L45.48-44.64L45.48-44.64Q46.08-48.72 46.08-53.04L46.08-53.04L46.08-53.04Q46.08-57.36 45.60-59.16ZM118.92-20.28L118.92-20.28L118.92-20.28Q121.92-18.24 121.92-13.74L121.92-13.74L121.92-13.74Q121.92-9.24 119.64-6.36L119.64-6.36L119.64-6.36Q117.36-3.48 113.64-1.56L113.64-1.56L113.64-1.56Q105.96 2.40 97.68 2.40L97.68 2.40L97.68 2.40Q89.40 2.40 84.54 0.60L84.54 0.60L84.54 0.60Q79.68-1.20 76.44-4.56L76.44-4.56L76.44-4.56Q70.08-10.92 70.08-22.56L70.08-22.56L70.08-22.56Q70.08-40.68 79.92-51.72L79.92-51.72L79.92-51.72Q90.48-63.60 108.84-63.60L108.84-63.60L108.84-63.60Q120.24-63.60 125.88-58.80L125.88-58.80L125.88-58.80Q130.08-55.20 130.08-49.32L130.08-49.32L130.08-49.32Q130.08-28.20 93.60-28.20L93.60-28.20L93.60-28.20Q93.12-25.08 93.12-22.44L93.12-22.44L93.12-22.44Q93.12-16.92 95.58-14.82L95.58-14.82L95.58-14.82Q98.04-12.72 102.60-12.72L102.60-12.72L102.60-12.72Q107.16-12.72 112.02-14.82L112.02-14.82L112.02-14.82Q116.88-16.92 118.92-20.28ZM94.44-33.36L94.44-33.36L94.44-33.36Q102.96-33.36 107.88-38.64L107.88-38.64L107.88-38.64Q112.80-43.68 112.80-51.72L112.80-51.72L112.80-51.72Q112.80-54.48 111.78-55.98L111.78-55.98L111.78-55.98Q110.76-57.48 108.72-57.48L108.72-57.48L108.72-57.48Q106.68-57.48 104.94-56.70L104.94-56.70L104.94-56.70Q103.20-55.92 101.40-53.28L101.40-53.28L101.40-53.28Q96.96-47.28 94.44-33.36ZM184.92 2.40L184.92 2.40L184.92 2.40Q170.40 2.40 170.40-8.88L170.40-8.88L170.40-8.88Q170.52-12 171.48-17.28L171.48-17.28L173.64-28.32L173.64-28.32Q176.88-43.92 176.88-47.40L176.88-47.40L176.88-47.40Q176.88-54.36 172.80-54.36L172.80-54.36L172.80-54.36Q165.96-54.36 162.36-36.48L162.36-36.48L155.28 0L131.16 2.40L143.64-61.32L163.32-63.60L161.40-51.84L161.40-51.84Q167.04-63.60 184.32-63.60L184.32-63.60L184.32-63.60Q192.72-63.60 196.26-60.06L196.26-60.06L196.26-60.06Q199.80-56.52 199.80-48.60L199.80-48.60L199.80-48.60Q199.80-41.16 195.96-23.76L195.96-23.76L195.96-23.76Q194.16-15.96 194.16-13.02L194.16-13.02L194.16-13.02Q194.16-10.08 195.78-8.40L195.78-8.40L195.78-8.40Q197.40-6.72 199.80-6.48L199.80-6.48L199.80-6.48Q198.60-2.40 194.46 0L194.46 0L194.46 0Q190.32 2.40 184.92 2.40ZM247.92-5.04L247.92-5.04L247.92-5.04Q242.16 2.40 227.88 2.40L227.88 2.40L227.88 2.40Q220.44 2.40 215.04-2.10L215.04-2.10L215.04-2.10Q209.64-6.60 209.64-13.08L209.64-13.08L209.64-13.08Q209.64-16.68 210-18.48L210-18.48L218.04-61.20L242.40-63.60L233.64-17.28L233.64-17.28Q233.16-14.64 233.16-13.08L233.16-13.08L233.16-13.08Q233.16-6.12 237.36-6.12L237.36-6.12L237.36-6.12Q242.04-6.12 245.40-12.48L245.40-12.48L245.40-12.48Q246.48-14.52 246.96-17.16L246.96-17.16L255.48-61.20L279.12-63.60L270.24-16.80L270.24-16.80Q269.88-15 269.88-13.08L269.88-13.08L269.88-13.08Q269.88-11.16 270.96-9.06L270.96-9.06L270.96-9.06Q272.04-6.96 275.52-6.48L275.52-6.48L275.52-6.48Q274.80-3.60 272.28-1.68L272.28-1.68L272.28-1.68Q267 2.40 261.30 2.40L261.30 2.40L261.30 2.40Q255.60 2.40 252.24 0.36L252.24 0.36L252.24 0.36Q248.88-1.68 247.92-5.04ZM333.72-20.28L333.72-20.28L333.72-20.28Q336.72-18.24 336.72-13.74L336.72-13.74L336.72-13.74Q336.72-9.24 334.44-6.36L334.44-6.36L334.44-6.36Q332.16-3.48 328.44-1.56L328.44-1.56L328.44-1.56Q320.76 2.40 312.48 2.40L312.48 2.40L312.48 2.40Q304.20 2.40 299.34 0.60L299.34 0.60L299.34 0.60Q294.48-1.20 291.24-4.56L291.24-4.56L291.24-4.56Q284.88-10.92 284.88-22.56L284.88-22.56L284.88-22.56Q284.88-40.68 294.72-51.72L294.72-51.72L294.72-51.72Q305.28-63.60 323.64-63.60L323.64-63.60L323.64-63.60Q335.04-63.60 340.68-58.80L340.68-58.80L340.68-58.80Q344.88-55.20 344.88-49.32L344.88-49.32L344.88-49.32Q344.88-28.20 308.40-28.20L308.40-28.20L308.40-28.20Q307.92-25.08 307.92-22.44L307.92-22.44L307.92-22.44Q307.92-16.92 310.38-14.82L310.38-14.82L310.38-14.82Q312.84-12.72 317.40-12.72L317.40-12.72L317.40-12.72Q321.96-12.72 326.82-14.82L326.82-14.82L326.82-14.82Q331.68-16.92 333.72-20.28ZM309.24-33.36L309.24-33.36L309.24-33.36Q317.76-33.36 322.68-38.64L322.68-38.64L322.68-38.64Q327.60-43.68 327.60-51.72L327.60-51.72L327.60-51.72Q327.60-54.48 326.58-55.98L326.58-55.98L326.58-55.98Q325.56-57.48 323.52-57.48L323.52-57.48L323.52-57.48Q321.48-57.48 319.74-56.70L319.74-56.70L319.74-56.70Q318-55.92 316.20-53.28L316.20-53.28L316.20-53.28Q311.76-47.28 309.24-33.36ZM435.36 2.40L435.36 2.40L435.36 2.40Q420.84 2.40 420.84-8.88L420.84-8.88L420.84-8.88Q420.84-13.80 422.94-23.34L422.94-23.34L422.94-23.34Q425.04-32.88 425.76-36.72L425.76-36.72L425.76-36.72Q427.44-45.48 427.44-48.24L427.44-48.24L427.44-48.24Q427.44-54.36 422.88-54.36L422.88-54.36L422.88-54.36Q419.88-54.36 417.00-50.22L417.00-50.22L417.00-50.22Q414.12-46.08 412.80-37.80L412.80-37.80L405.36 0L381.96 2.40L388.44-30.24L388.44-30.24Q389.52-35.64 390.48-41.76L390.48-41.76L390.48-41.76Q391.44-47.88 391.44-48.84L391.44-48.84L391.44-48.84Q391.44-54.36 387.36-54.36L387.36-54.36L387.36-54.36Q384.60-54.36 381.60-50.28L381.60-50.28L381.60-50.28Q378.60-46.20 376.92-37.80L376.92-37.80L369.60 0L345.96 2.40L358.56-61.20L378.12-63.60L376.08-51.48L376.08-51.48Q379.20-57.96 384.96-60.78L384.96-60.78L384.96-60.78Q390.72-63.60 399.72-63.60L399.72-63.60L399.72-63.60Q404.88-63.60 408.24-61.08L408.24-61.08L408.24-61.08Q411.60-58.56 412.68-54.48L412.68-54.48L412.68-54.48Q414.72-58.68 419.94-61.14L419.94-61.14L419.94-61.14Q425.16-63.60 431.58-63.60L431.58-63.60L431.58-63.60Q438.00-63.60 441.18-62.22L441.18-62.22L441.18-62.22Q444.36-60.84 446.28-58.56L446.28-58.56L446.28-58.56Q449.52-54.36 449.52-46.68L449.52-46.68L449.52-46.68Q449.52-39.12 446.28-23.40L446.28-23.40L446.28-23.40Q444.60-15.72 444.60-12.90L444.60-12.90L444.60-12.90Q444.60-10.08 446.22-8.40L446.22-8.40L446.22-8.40Q447.84-6.72 450.24-6.48L450.24-6.48L450.24-6.48Q449.04-2.40 444.90 0L444.90 0L444.90 0Q440.76 2.40 435.36 2.40ZM488.28-6.60L488.28-6.60L488.28-6.60Q484.56 2.40 472.68 2.40L472.68 2.40L472.68 2.40Q466.56 2.40 462.72-1.80L462.72-1.80L462.72-1.80Q459.48-5.52 459.48-9.24L459.48-9.24L459.48-9.24Q459.48-18.96 463.92-37.92L463.92-37.92L468.36-61.20L492.72-63.60L485.40-25.68L485.40-25.68Q483.36-16.80 483.36-13.68L483.36-13.68L483.36-13.68Q483.36-6.84 488.28-6.60ZM470.52-77.88L470.52-77.88L470.52-77.88Q470.52-82.56 474.42-85.08L474.42-85.08L474.42-85.08Q478.32-87.60 483.96-87.60L483.96-87.60L483.96-87.60Q489.60-87.60 493.02-85.08L493.02-85.08L493.02-85.08Q496.44-82.56 496.44-77.88L496.44-77.88L496.44-77.88Q496.44-73.20 492.66-70.80L492.66-70.80L492.66-70.80Q488.88-68.40 483.24-68.40L483.24-68.40L483.24-68.40Q477.60-68.40 474.06-70.80L474.06-70.80L474.06-70.80Q470.52-73.20 470.52-77.88ZM549.24 2.40L549.24 2.40L549.24 2.40Q534.72 2.40 534.72-8.88L534.72-8.88L534.72-8.88Q534.84-12 535.80-17.28L535.80-17.28L537.96-28.32L537.96-28.32Q541.20-43.92 541.20-47.40L541.20-47.40L541.20-47.40Q541.20-54.36 537.12-54.36L537.12-54.36L537.12-54.36Q530.28-54.36 526.68-36.48L526.68-36.48L519.60 0L495.48 2.40L507.96-61.32L527.64-63.60L525.72-51.84L525.72-51.84Q531.36-63.60 548.64-63.60L548.64-63.60L548.64-63.60Q557.04-63.60 560.58-60.06L560.58-60.06L560.58-60.06Q564.12-56.52 564.12-48.60L564.12-48.60L564.12-48.60Q564.12-41.16 560.28-23.76L560.28-23.76L560.28-23.76Q558.48-15.96 558.48-13.02L558.48-13.02L558.48-13.02Q558.48-10.08 560.10-8.40L560.10-8.40L560.10-8.40Q561.72-6.72 564.12-6.48L564.12-6.48L564.12-6.48Q562.92-2.40 558.78 0L558.78 0L558.78 0Q554.64 2.40 549.24 2.40ZM582.24-50.16L582.24-50.16L582.24-50.16Q586.32-55.92 592.50-59.76L592.50-59.76L592.50-59.76Q598.68-63.60 606.24-63.60L606.24-63.60L606.24-63.60Q613.80-63.60 617.40-61.20L617.40-61.20L640.92-63.60L632.76-17.52L632.76-17.52Q628.56 6 619.68 15.24L619.68 15.24L619.68 15.24Q611.16 24 594.60 24L594.60 24L594.60 24Q582 24 574.80 20.04L574.80 20.04L574.80 20.04Q567.60 16.08 567.60 9.48L567.60 9.48L567.60 9.48Q567.60 4.56 571.32 1.74L571.32 1.74L571.32 1.74Q575.04-1.08 580.80-1.08L580.80-1.08L580.80-1.08Q585.84-1.08 589.68 1.20L589.68 1.20L589.68 1.20Q591.96 2.40 593.04 4.08L593.04 4.08L593.04 4.08Q590.28 6.48 590.28 10.44L590.28 10.44L590.28 10.44Q590.28 15.60 595.08 15.60L595.08 15.60L595.08 15.60Q603.12 15.60 607.68-3.36L607.68-3.36L607.68-3.36Q609-8.52 610.08-13.68L610.08-13.68L610.08-13.68Q604.68-7.08 592.44-7.08L592.44-7.08L592.44-7.08Q583.92-7.08 579-11.16L579-11.16L579-11.16Q574.08-15.24 574.08-24.84L574.08-24.84L574.08-24.84Q574.08-30.84 576.12-37.62L576.12-37.62L576.12-37.62Q578.16-44.40 582.24-50.16ZM597.84-24.48L597.84-24.48L597.84-24.48Q597.84-16.32 602.04-16.32L602.04-16.32L602.04-16.32Q604.92-16.32 607.68-19.44L607.68-19.44L607.68-19.44Q609.84-21.96 610.68-25.68L610.68-25.68L616.80-56.52L616.80-56.52Q616.20-56.64 615.60-56.88L615.60-56.88L615.60-56.88Q614.40-57.36 612.84-57.36L612.84-57.36L612.84-57.36Q605.52-57.36 601.20-45.36L601.20-45.36L601.20-45.36Q597.84-36 597.84-24.48ZM674.28-6.60L674.28-6.60L674.28-6.60Q670.56 2.40 658.68 2.40L658.68 2.40L658.68 2.40Q652.68 2.40 648.84-1.80L648.84-1.80L648.84-1.80Q645.72-5.28 645.72-9.24L645.72-9.24L645.72-9.24Q645.72-18.24 649.92-37.92L649.92-37.92L658.68-84L683.04-86.40L671.40-25.68L671.40-25.68Q669.36-16.80 669.36-13.68L669.36-13.68L669.36-13.68Q669.36-6.84 674.28-6.60ZM733.08-20.28L733.08-20.28L733.08-20.28Q736.08-18.24 736.08-13.74L736.08-13.74L736.08-13.74Q736.08-9.24 733.80-6.36L733.80-6.36L733.80-6.36Q731.52-3.48 727.80-1.56L727.80-1.56L727.80-1.56Q720.12 2.40 711.84 2.40L711.84 2.40L711.84 2.40Q703.56 2.40 698.70 0.60L698.70 0.60L698.70 0.60Q693.84-1.20 690.60-4.56L690.60-4.56L690.60-4.56Q684.24-10.92 684.24-22.56L684.24-22.56L684.24-22.56Q684.24-40.68 694.08-51.72L694.08-51.72L694.08-51.72Q704.64-63.60 723.00-63.60L723.00-63.60L723.00-63.60Q734.40-63.60 740.04-58.80L740.04-58.80L740.04-58.80Q744.24-55.20 744.24-49.32L744.24-49.32L744.24-49.32Q744.24-28.20 707.76-28.20L707.76-28.20L707.76-28.20Q707.28-25.08 707.28-22.44L707.28-22.44L707.28-22.44Q707.28-16.92 709.74-14.82L709.74-14.82L709.74-14.82Q712.20-12.72 716.76-12.72L716.76-12.72L716.76-12.72Q721.32-12.72 726.18-14.82L726.18-14.82L726.18-14.82Q731.04-16.92 733.08-20.28ZM708.60-33.36L708.60-33.36L708.60-33.36Q717.12-33.36 722.04-38.64L722.04-38.64L722.04-38.64Q726.96-43.68 726.96-51.72L726.96-51.72L726.96-51.72Q726.96-54.48 725.94-55.98L725.94-55.98L725.94-55.98Q724.92-57.48 722.88-57.48L722.88-57.48L722.88-57.48Q720.84-57.48 719.10-56.70L719.10-56.70L719.10-56.70Q717.36-55.92 715.56-53.28L715.56-53.28L715.56-53.28Q711.12-47.28 708.60-33.36Z" fill="#a00d1e"></path></g></g><style>text {
  font-size: 64px;
  font-family: Arial Black;
  dominant-baseline: central;
  text-anchor: middle;
}</style></svg>